<?xml version="1.0" encoding="UTF-8" standalone="no"?>
<!-- Generator: Adobe Illustrator 21.1.0, SVG Export Plug-In . SVG Version: 6.00 Build 0)  -->

<svg version="1.1" id="Layer_1" x="0px" y="0px" width="297mm" height="420mm" viewBox="0 0 1122.5196 1587.4015" enable-background="new 0 0 1504.909 1311.886" xml:space="preserve" sodipodi:docname="tool_caddy_g42_v04d.svg" inkscape:version="1.1 (c68e22c387, 2021-05-23)" xmlns:inkscape="http://www.inkscape.org/namespaces/inkscape" xmlns:sodipodi="http://sodipodi.sourceforge.net/DTD/sodipodi-0.dtd" xmlns="http://www.w3.org/2000/svg" xmlns:svg="http://www.w3.org/2000/svg" xmlns:rdf="http://www.w3.org/1999/02/22-rdf-syntax-ns#" xmlns:cc="http://creativecommons.org/ns#" xmlns:dc="http://purl.org/dc/elements/1.1/" xmlns:shaper="http://www.shapertools.com/namespaces/shaper"><metadata id="metadata20"><rdf:RDF><cc:Work rdf:about=""><dc:format>image/svg+xml</dc:format><dc:type rdf:resource="http://purl.org/dc/dcmitype/StillImage" /></cc:Work></rdf:RDF></metadata><defs id="defs35" /><sodipodi:namedview id="namedview33" pagecolor="#ffffff" bordercolor="#666666" borderopacity="1.0" inkscape:pageshadow="2" inkscape:pageopacity="0.0" inkscape:pagecheckerboard="0" showgrid="false" units="mm" width="250mm" inkscape:document-units="mm" inkscape:zoom="0.79212985" inkscape:cx="135.71007" inkscape:cy="1228.9652" inkscape:window-width="1920" inkscape:window-height="991" inkscape:window-x="-9" inkscape:window-y="-9" inkscape:window-maximized="1" inkscape:current-layer="Layer_1" inkscape:snap-global="false" /><g id="path2-3-8" transform="translate(115.47703,-292.17186)"><path style="color:#000000;fill:#000000;stroke-width:0.0377953;-inkscape-stroke:none" d="m 18.498487,1057.5744 c 0,4.2156 -3.40815,7.6377 -7.62382,7.6434 -4.2155702,0 -7.6376902,-3.4082 -7.6434002,-7.6238 -19.1376298,-0.04 -38.3726998,-0.02 -57.5457198,-0.02 v 256.3132 c 4.21567,-8e-4 7.63442,3.4164 7.63524,7.632 8.1e-4,4.2156 -3.41631,7.6344 -7.63198,7.6352 -5.08748,0 -10.17846,0 -15.26722,0 v 190.8407 h 15.26722 c 4.21567,0 7.63361,3.4179 7.63361,7.6337 0,4.2156 -3.41794,7.6336 -7.63361,7.6336 0.2218,85.3477 0.0443,170.8941 0,256.3132 H 3.2345368 c 0,-4.2156 3.40825,-7.6377 7.6238202,-7.6434 4.21567,-0.01 7.63768,3.4082 7.64339,7.6238 0.006,2.9264 0.20803,11.6763 0,15.2872 H 209.34205 v -15.2672 c 0,-4.2156 3.4213,-7.632 7.6368,-7.6304 4.2133,0 7.6279,3.4172 7.6304,7.6304 h 57.5457 v -256.3132 c -4.2155,0 -7.6336,-3.418 -7.6336,-7.6336 0,-4.2157 3.4181,-7.6337 7.6336,-7.6337 h 15.2672 v -190.8403 h -15.2672 c -4.2155,9e-4 -7.6344,-3.4163 -7.6352,-7.6319 -8e-4,-4.2156 3.4164,-7.6356 7.632,-7.6364 8e-4,0 3.89358,0 3.89358,0 l -3.89358,-256.3121 h -57.5458 c 0,4.2156 -3.4212,7.632 -7.6368,7.6304 -4.2132,0 -7.6279,-3.4172 -7.6304,-7.6304 v -15.2672 H 18.498487" id="path989" /><path style="color:#000000;fill:#000000;-inkscape-stroke:none" d="m 18.498047,1042.2891 v 0.037 H 209.32031 v 15.248 c 0.003,4.2234 3.42503,7.6504 7.64844,7.6504 4.21888,0 7.64113,-3.4146 7.65234,-7.6308 h 57.51172 l 3.89453,256.2734 h -3.875 c -4.22581,8e-4 -7.65314,3.4304 -7.65234,7.6562 8e-4,4.2258 3.42859,7.6513 7.6543,7.6504 h 15.24804 v 190.8028 H 282.1543 c -4.22571,0 -7.65235,3.4264 -7.65235,7.6523 0,4.2196 3.41769,7.6383 7.63477,7.6484 v 256.2793 H 224.625 c -0.0137,-4.2138 -3.4299,-7.6308 -7.64648,-7.6308 -4.22571,0 -7.65625,3.4246 -7.65625,7.6504 v 15.248 H 18.521484 c 0.206859,-3.6218 0.006,-12.3457 0,-15.2676 -0.0057,-4.2258 -3.438157,-7.6526 -7.664062,-7.6425 -4.2188589,0.01 -7.6275057,3.4263 -7.638672,7.6425 h -57.511719 c 0.04431,-85.4073 0.221721,-170.9433 0,-256.2793 4.217251,-0.01 7.634766,-3.4288 7.634766,-7.6484 0,-4.226 -3.426464,-7.6523 -7.652344,-7.6523 h -15.248047 v -190.8028 h 15.248047 c 4.225881,-8e-4 7.651203,-3.4285 7.650391,-7.6543 -8.21e-4,-4.2189 -3.418432,-7.636 -7.634766,-7.6465 v -256.2792 c 19.161993,-10e-5 38.385144,-0.021 57.5117189,0.019 0.016919,4.2162 3.4393789,7.623 7.6582031,7.623 4.225879,-0.01 7.642578,-3.4363 7.642578,-7.6621 h -0.03711 c 0,4.2054 -3.400016,7.6193 -7.605469,7.625 -4.2053804,0 -7.6193038,-3.4001 -7.625,-7.6054 v -0.02 H 3.230468 c -19.137651,-0.04 -38.371934,-0.02 -57.544922,-0.02 h -0.01953 v 256.3516 h 0.01953 c 4.205452,-8e-4 7.616369,3.4079 7.617187,7.6132 8.08e-4,4.2054 -3.40783,7.6145 -7.613281,7.6153 h -15.287109 v 190.8789 h 15.287109 c 4.205452,0 7.613281,3.4096 7.613281,7.6152 0,4.2054 -3.40783,7.6152 -7.613281,7.6152 h -0.01953 v 0.018 c 0.221799,85.3476 0.0443,170.8954 0,256.3145 v 0.018 H 3.2539063 v -0.018 c 0,-4.2054 3.3981629,-7.6193 7.6035157,-7.625 h 0.002 c 4.205426,-0.01 7.617351,3.4001 7.623047,7.6054 0.006,2.9272 0.207888,11.6768 0,15.2852 v 0.02 H 209.36133 v -15.2851 c 0,-4.2054 3.4119,-7.613 7.61719,-7.6114 4.20307,0 7.60883,3.4084 7.61132,7.6114 v 0.02 h 57.58399 V 1535.244 h -0.0195 c -4.20528,0 -7.61328,-3.4098 -7.61328,-7.6152 0,-4.2055 3.408,-7.6152 7.61328,-7.6152 h 15.28711 v -190.877 H 282.1543 c -4.20528,9e-4 -7.61444,-3.4079 -7.61524,-7.6133 -8e-4,-4.2053 3.40791,-7.6164 7.61328,-7.6171 h 3.91211 l -3.89453,-256.3497 h -57.58203 v 0.018 c 0,4.2054 -3.41376,7.6129 -7.61914,7.6113 -4.20298,0 -7.60883,-3.4083 -7.61133,-7.6113 v -15.2851 z" id="path991" /></g><path style="stroke-width:0.6;fill:#000000;fill-opacity:1" id="path24-9" d="m 1055.5076,1499.3856 c 0,-4.2156 3.418,-7.6336 7.6336,-7.6336 4.2156,0 7.6336,3.418 7.6336,7.6336 h 14.0928 V 765.38447 h -14.0928 c 0,4.21562 -3.418,7.63361 -7.6336,7.63361 -4.2156,0 -7.6336,-3.41799 -7.6336,-7.63361 V 750.70444 H 761.90712 v 14.68003 c 0,4.21562 -3.418,7.63361 -7.63361,7.63361 -4.21562,0 -7.63362,-3.41799 -7.63362,-7.63361 h -14.09282 v 734.00113 h 14.09282 c 0,-4.2156 3.418,-7.6336 7.63362,-7.6336 4.21561,0 7.63361,3.418 7.63361,7.6336 v 14.68 h 293.60048 z" inkscape:connector-curvature="0" /><path id="path26-8" d="m 1062.8476,1036.9649 c 4.2156,-0.01 7.6377,3.4082 7.6434,7.6238 0.01,4.2156 -3.4082,7.6377 -7.6239,7.6434 -0.01,0 -0.014,0 -0.019,0 v 160.3059 c 4.2156,0 7.6336,3.418 7.6336,7.6336 0,4.2156 -3.418,7.6336 -7.6336,7.6336 h -15.2672 c -4.2157,0 -7.6337,-3.418 -7.6337,-7.6336 0,-4.2156 3.418,-7.6336 7.6337,-7.6336 v 0 -160.3059 c -4.2157,0.01 -7.6377,-3.4082 -7.6434,-7.6238 -0.01,-4.2156 3.4082,-7.6377 7.6238,-7.6434 0.01,0 0.014,0 0.02,0 h 15.2672" shaper:pathType="interior" shaper:cutDepth="0.006603999999999983" inkscape:connector-curvature="0" style="vector-effect:non-scaling-stroke;fill:#ffffff;stroke:#000000;stroke-width:1.2" /><path style="stroke-width:0.6;fill:#000000;fill-opacity:1" id="path28-9" d="m 484.64303,765.38447 c 0,4.21561 -3.418,7.63361 -7.63362,7.63361 -4.21562,0 -7.63361,-3.418 -7.63361,-7.63361 h -14.09281 v 734.00113 h 14.09281 c 0,-4.2156 3.41799,-7.6336 7.63361,-7.6336 4.21562,0 7.63362,3.418 7.63362,7.6336 v 15.2672 h 176.16021 v -15.2672 c 0,-4.2156 3.41804,-7.6336 7.63361,-7.6336 4.21567,0 7.63361,3.418 7.63361,7.6336 h 14.0928 V 765.38447 h -14.0928 c 0,4.21561 -3.41794,7.63361 -7.63361,7.63361 -4.21557,0 -7.63361,-3.418 -7.63361,-7.63361 V 750.11724 H 484.64303 Z" inkscape:connector-curvature="0" /><g inkscape:groupmode="layer" id="layer2" inkscape:label="Parts" /><path inkscape:connector-curvature="0" shaper:cutDepth="0.006349999999999981" shaper:pathType="exterior" d="m 147.83058,708.54242 h 381.6806 c 8.10746,0 14.68001,-6.57256 14.68001,-14.68001 0,0 0,0 0,0 V 363.56198 c 0,-4.62101 -2.17512,-8.97196 -5.87198,-11.74407 L 347.47887,208.68766 c -5.21953,-3.91463 -12.39642,-3.91463 -17.61605,0 L 139.02256,351.81791 c -3.69693,2.77211 -5.87201,7.12306 -5.87201,11.74407 v 330.30043 c 0,8.10745 6.57257,14.68001 14.68003,14.68001 0,0 0,0 0,0" id="path4" style="vector-effect:non-scaling-stroke;stroke-width:0.6;fill:#000000;fill-opacity:1" /><path style="vector-effect:non-scaling-stroke;fill:#ffffff;stroke:#000000;stroke-width:1.2" inkscape:connector-curvature="0" shaper:cutDepth="0.006349999999999981" shaper:pathType="interior" d="m 170.4378,503.02217 c 4.21562,0 7.63362,3.41805 7.63362,7.63361 0,4.21557 -3.418,7.63351 -7.63362,7.63351 v 145.62589 c 4.21562,0 7.63362,3.41804 7.63362,7.63361 0,4.21566 -3.418,7.63361 -7.63362,7.63361 v 0 h -15.26723 c -4.21559,0 -7.6336,-3.41795 -7.6336,-7.63361 0,-4.21557 3.41801,-7.63361 7.6336,-7.63361 V 518.28929 c -4.21559,0 -7.6336,-3.41794 -7.6336,-7.63351 0,-4.21556 3.41801,-7.63361 7.6336,-7.63361 h 15.26723" id="path8" /><path style="vector-effect:non-scaling-stroke;fill:#ffffff;stroke:#000000;stroke-width:1.2" inkscape:connector-curvature="0" shaper:cutDepth="0.006349999999999981" shaper:pathType="interior" d="m 418.8238,671.25518 c -0.0102,-4.21556 3.40815,-7.63769 7.62382,-7.64339 4.21556,-0.0133 7.63769,3.40825 7.64339,7.62382 0,0.0132 0,0.0132 0,0.0194 v 15.26722 c 0.0102,4.21556 -3.40744,7.63768 -7.62382,7.64339 -4.21567,0.0133 -7.63768,-3.40825 -7.64339,-7.62382 0,-0.0132 0,-0.0132 0,-0.0194 H 258.51794 c 0,4.21567 -3.41392,7.63524 -7.63035,7.63687 -4.21561,0 -7.63525,-3.41386 -7.63688,-7.63035 0,0 0,-0.0132 0,-0.0132 V 671.2485 c 0,-4.21566 3.41393,-7.63524 7.63036,-7.63687 4.21561,0 7.63524,3.41387 7.63687,7.63035 0,0 0,0.0133 0,0.0133 H 418.8238" id="path10" /><path style="vector-effect:non-scaling-stroke;fill:#ffffff;stroke:#000000;stroke-width:1.2" inkscape:connector-curvature="0" shaper:cutDepth="0.006349999999999981" shaper:pathType="interior" d="m 506.90396,400.84921 c -4.21567,0 -7.63361,-3.41794 -7.63361,-7.63361 0,-4.21557 3.41794,-7.63361 7.63361,-7.63361 h 15.26722 c 4.21556,0 7.63361,3.41804 7.63361,7.63361 0,4.21567 -3.41805,7.63361 -7.63361,7.63361 v 263.06597 c 4.21556,0 7.63361,3.41804 7.63361,7.63361 0,4.21566 -3.41805,7.63361 -7.63361,7.63361 h -15.26722 c -4.21567,0 -7.63361,-3.41795 -7.63361,-7.63361 0,-4.21557 3.41794,-7.63361 7.63361,-7.63361 V 400.84921" id="path12" /><path inkscape:connector-curvature="0" shaper:cutDepth="0.006349999999999981" shaper:pathType="exterior" d="M 982.93558,708.54241 H 601.25497 c -8.10746,0 -14.68001,-6.57255 -14.68001,-14.68001 0,0 0,0 0,0 V 363.56189 c 0,-4.62094 2.17512,-8.97194 5.87198,-11.74403 L 783.28728,208.68765 c 5.21953,-3.91467 12.39642,-3.91467 17.61605,0 l 190.84026,143.13021 c 3.69693,2.77209 5.87202,7.12309 5.87202,11.74403 V 693.8624 c 0,8.10746 -6.57258,14.68001 -14.68003,14.68001 0,0 0,0 0,0" id="path14" style="vector-effect:non-scaling-stroke;fill:#000000;fill-opacity:1;stroke-width:0.6" /><path style="vector-effect:non-scaling-stroke;fill:#ffffff;stroke:#000000;stroke-width:1.2" inkscape:connector-curvature="0" shaper:cutDepth="0.006349999999999981" shaper:pathType="interior" d="m 960.32835,503.0221 c -4.21562,0 -7.63362,3.41799 -7.63362,7.63361 0,4.21562 3.418,7.63362 7.63362,7.63362 v 145.62583 c -4.21562,0 -7.63362,3.41799 -7.63362,7.63359 0,4.21562 3.418,7.63362 7.63362,7.63362 v 0 h 15.26723 c 4.2156,0 7.6336,-3.418 7.6336,-7.63362 0,-4.2156 -3.418,-7.63359 -7.6336,-7.63359 V 518.28933 c 4.2156,0 7.6336,-3.418 7.6336,-7.63362 0,-4.21562 -3.418,-7.63361 -7.6336,-7.63361 h -15.26723" id="path18" /><path style="vector-effect:non-scaling-stroke;fill:#ffffff;stroke:#000000;stroke-width:1.2" inkscape:connector-curvature="0" shaper:cutDepth="0.006349999999999981" shaper:pathType="interior" d="m 711.94235,671.25516 c 0.0102,-4.21562 -3.40815,-7.63768 -7.62382,-7.64339 -4.21556,-0.005 -7.63769,3.4082 -7.64339,7.62382 0,0.007 0,0.0136 0,0.0196 v 15.26723 c -0.0102,4.21562 3.40744,7.63769 7.62382,7.6434 4.21567,0.005 7.63768,-3.40822 7.64339,-7.62383 0,-0.007 0,-0.0136 0,-0.0196 h 160.30586 c 0,4.21562 3.41392,7.63524 7.63035,7.63687 4.21561,10e-4 7.63525,-3.41392 7.63688,-7.63035 0,-0.003 0,-0.005 0,-0.007 v -15.26723 c 0,-4.21562 -3.41393,-7.63523 -7.63036,-7.63686 -4.21561,-0.001 -7.63524,3.4139 -7.63687,7.63033 0,0.003 0,0.005 0,0.007 H 711.94235" id="path20" /><path style="vector-effect:non-scaling-stroke;fill:#ffffff;stroke:#000000;stroke-width:1.2" inkscape:connector-curvature="0" shaper:cutDepth="0.006349999999999981" shaper:pathType="interior" d="m 623.86219,400.84915 c 4.21567,0 7.63361,-3.41801 7.63361,-7.63362 0,-4.21561 -3.41794,-7.63361 -7.63361,-7.63361 h -15.26722 c -4.21556,0 -7.63361,3.418 -7.63361,7.63361 0,4.21561 3.41805,7.63362 7.63361,7.63362 v 263.06601 c -4.21556,0 -7.63361,3.41799 -7.63361,7.63359 0,4.21562 3.41805,7.63362 7.63361,7.63362 h 15.26722 c 4.21567,0 7.63361,-3.418 7.63361,-7.63362 0,-4.2156 -3.41794,-7.63359 -7.63361,-7.63359 V 400.84915" id="path22" /><circle style="fill:#fffff9;fill-opacity:1;stroke:#000000;stroke-width:1.20189;stroke-linecap:butt;stroke-linejoin:miter;stroke-miterlimit:4;stroke-dasharray:none;stroke-dashoffset:0;stroke-opacity:1" id="path4801" cx="-792.0954" cy="266.66724" r="18.296692" transform="scale(-1,1)" /><circle style="fill:#fffff9;fill-opacity:1;stroke:#000000;stroke-width:1.20189;stroke-linecap:butt;stroke-linejoin:miter;stroke-miterlimit:4;stroke-dasharray:none;stroke-dashoffset:0;stroke-opacity:1" id="path4801-6" cx="338.67084" cy="266.66724" r="18.29669" /><path id="path2403" style="fill:#ffffff;fill-opacity:1;stroke:#000000;stroke-width:0.188976;stroke-miterlimit:4;stroke-dasharray:none;stroke-opacity:1" d="m 521.41893,186.9485 a 7.5590561,7.5590561 0 0 0 -7.55859,7.55859 7.5590561,7.5590561 0 0 0 7.55859,7.5586 v 45.35547 a 7.5590557,7.5590557 0 0 0 -7.55859,7.55859 7.5590557,7.5590557 0 0 0 7.55859,7.55859 h 15.11914 a 7.5590553,7.5590553 0 0 0 7.5586,-7.55859 7.5590553,7.5590553 0 0 0 -7.5586,-7.55859 v -45.35547 a 7.5590565,7.5590565 0 0 0 7.5586,-7.5586 7.5590565,7.5590565 0 0 0 -7.5586,-7.55859 z" /><rect style="fill:#000000;fill-opacity:1;stroke:none;stroke-width:2.0732" id="rect2529-1" width="75.590546" height="75.590546" x="585.76593" y="187.04228" /><path id="path30-1" d="m 668.14325,1212.538 c 4.21566,-0.01 7.63768,3.4082 7.64339,7.6238 0,4.2156 -3.40815,7.6377 -7.62382,7.6434 0,0 -0.0132,0 -0.0194,0 H 652.8762 c -4.21567,0.01 -7.63769,-3.4082 -7.6434,-7.6238 0,-4.2157 3.40816,-7.6377 7.62383,-7.6434 0,0 0.0132,0 0.0194,0 v -160.3059 c -4.21557,0 -7.63361,-3.418 -7.63361,-7.6336 0,-4.2156 3.41804,-7.6336 7.63361,-7.6336 h 15.26722 c 4.21566,0 7.6336,3.418 7.6336,7.6336 0,4.2156 -3.41794,7.6336 -7.6336,7.6336 v 0 160.3059" shaper:pathType="interior" shaper:cutDepth="0.006603999999999912" inkscape:connector-curvature="0" style="vector-effect:non-scaling-stroke;fill:#ffffff;stroke:#000000;stroke-width:1.2" /></svg>
