<?xml version="1.0" encoding="UTF-8" standalone="no"?>
<!-- Generator: Adobe Illustrator 21.1.0, SVG Export Plug-In . SVG Version: 6.00 Build 0)  -->

<svg
   xmlns:shaper="http://www.shapertools.com/namespaces/shaper"
   xmlns:dc="http://purl.org/dc/elements/1.1/"
   xmlns:cc="http://creativecommons.org/ns#"
   xmlns:rdf="http://www.w3.org/1999/02/22-rdf-syntax-ns#"
   xmlns:svg="http://www.w3.org/2000/svg"
   xmlns="http://www.w3.org/2000/svg"
   xmlns:sodipodi="http://sodipodi.sourceforge.net/DTD/sodipodi-0.dtd"
   xmlns:inkscape="http://www.inkscape.org/namespaces/inkscape"
   version="1.1"
   id="Layer_1"
   x="0px"
   y="0px"
   width="297mm"
   height="420mm"
   viewBox="0 0 1122.5196 1587.4015"
   enable-background="new 0 0 1504.909 1311.886"
   xml:space="preserve"
   sodipodi:docname="tool_caddy_g42_v05.svg"
   inkscape:version="0.92.1 r15371"><sodipodi:namedview
     id="namedview1349"
     pagecolor="#ffffff"
     bordercolor="#666666"
     borderopacity="1.0"
     inkscape:pageshadow="2"
     inkscape:pageopacity="0.0"
     inkscape:pagecheckerboard="0"
     inkscape:document-units="mm"
     showgrid="false"
     inkscape:zoom="0.64664654"
     inkscape:cx="682.49693"
     inkscape:cy="799.22495"
     inkscape:window-width="1264"
     inkscape:window-height="1001"
     inkscape:window-x="0"
     inkscape:window-y="0"
     inkscape:window-maximized="0"
     inkscape:current-layer="Layer_1"
     inkscape:snap-global="false" /><metadata
     id="metadata20"><rdf:RDF><cc:Work
         rdf:about=""><dc:format>image/svg+xml</dc:format><dc:type
           rdf:resource="http://purl.org/dc/dcmitype/StillImage" /></cc:Work></rdf:RDF></metadata><defs
     id="defs35" /><path
     shaper:cutDepth="0.006603999999999979"
     shaper:pathType="exterior"
     d="m 133.97554,765.3844 c 0,4.2156 -3.40815,7.6377 -7.62382,7.6434 -4.21557,0 -7.63769,-3.4082 -7.6434,-7.6238 -19.181885,-0.0342 -38.363813,-0.02 -57.54572,-0.02 v 256.3132 c 4.21567,-8e-4 7.63442,3.4164 7.63524,7.632 8.1e-4,4.2156 -3.41631,7.6344 -7.63198,7.6352 H 45.89864 v 190.8407 h 15.26722 c 4.21567,0 7.63361,3.418 7.63361,7.6337 0,4.2156 -3.41794,7.6336 -7.63361,7.6336 v 256.3132 h 57.54573 c 0,-4.2156 3.40825,-7.6377 7.62382,-7.6434 4.21567,-0.01 7.63768,3.4082 7.64339,7.6238 v 15.2872 h 190.8403 v -15.2672 c 0,-4.2156 3.4213,-7.632 7.6368,-7.6304 4.2133,0 7.6279,3.4172 7.6304,7.6304 h 57.5457 v -256.3132 c -4.2155,0 -7.6336,-3.418 -7.6336,-7.6336 0,-4.2157 3.4181,-7.6337 7.6336,-7.6337 h 15.2672 V 1036.9652 H 397.632 c -4.2155,9e-4 -7.6344,-3.4163 -7.6352,-7.6319 -8e-4,-4.2156 3.4164,-7.6345 7.632,-7.6353 0,-85.43618 0,-170.87577 0,-256.3132 H 340.083 c 0,4.2156 -3.4212,7.632 -7.6368,7.6304 -4.2132,-0.001 -7.6279,-3.4172 -7.6304,-7.6304 V 750.1176 H 133.97554 Z"
     id="path2-3"
     style="vector-effect:non-scaling-stroke;fill:#000000;fill-opacity:1;stroke-width:0.60000002"
     sodipodi:nodetypes="cccccscccsscccccccsccccsscccscccccccc"
     inkscape:connector-curvature="0" /><path
     style="stroke-width:0.6;fill:#000000;fill-opacity:1"
     id="path24-9"
     d="m 1055.5076,1499.3856 c 0,-4.2156 3.418,-7.6336 7.6336,-7.6336 4.2156,0 7.6336,3.418 7.6336,7.6336 h 14.0928 V 765.38447 h -14.0928 c 0,4.21562 -3.418,7.63361 -7.6336,7.63361 -4.2156,0 -7.6336,-3.41799 -7.6336,-7.63361 V 750.70444 H 761.90712 v 14.68003 c 0,4.21562 -3.418,7.63361 -7.63361,7.63361 -4.21562,0 -7.63362,-3.41799 -7.63362,-7.63361 h -14.09282 v 734.00113 h 14.09282 c 0,-4.2156 3.418,-7.6336 7.63362,-7.6336 4.21561,0 7.63361,3.418 7.63361,7.6336 v 14.68 h 293.60048 z" /><path
     id="path26-8"
     d="m 1062.8476,1036.9649 c 4.2156,-0.01 7.6377,3.4082 7.6434,7.6238 0.01,4.2156 -3.4082,7.6377 -7.6239,7.6434 -0.044,53.4351 -0.019,106.8707 -0.019,160.3059 4.2156,0 7.6336,3.418 7.6336,7.6336 0,4.2156 -3.418,7.6336 -7.6336,7.6336 h -15.2672 c -4.2157,0 -7.6337,-3.418 -7.6337,-7.6336 0,-4.2156 3.418,-7.6336 7.6337,-7.6336 v -160.3059 c -4.2157,0.01 -7.6377,-3.4082 -7.6434,-7.6238 -0.01,-4.2156 3.4082,-7.6377 7.6238,-7.6434 5.0954,0 10.1909,0 15.2863,0 z"
     shaper:pathType="interior"
     shaper:cutDepth="0.006603999999999983"
     style="vector-effect:non-scaling-stroke;fill:#ffffff;stroke:#000000;stroke-width:1.20000005"
     sodipodi:nodetypes="ccccssssccccc"
     inkscape:connector-curvature="0" /><path
     style="stroke-width:0.6;fill:#000000;fill-opacity:1"
     id="path28-9"
     d="m 484.64303,765.38447 c 0,4.21561 -3.418,7.63361 -7.63362,7.63361 -4.21562,0 -7.63361,-3.418 -7.63361,-7.63361 h -14.09281 v 734.00113 h 14.09281 c 0,-4.2156 3.41799,-7.6336 7.63361,-7.6336 4.21562,0 7.63362,3.418 7.63362,7.6336 v 15.2672 h 176.16021 v -15.2672 c 0,-4.2156 3.41804,-7.6336 7.63361,-7.6336 4.21567,0 7.63361,3.418 7.63361,7.6336 h 14.0928 V 765.38447 h -14.0928 c 0,4.21561 -3.41794,7.63361 -7.63361,7.63361 -4.21557,0 -7.63361,-3.418 -7.63361,-7.63361 V 750.11724 H 484.64303 Z" /><g
     id="layer2" /><path
     shaper:cutDepth="0.006349999999999981"
     shaper:pathType="exterior"
     d="m 529.51118,708.54242 c 8.10746,0 14.68001,-6.57256 14.68001,-14.68001 V 363.56198 c 0,-4.62101 -2.17512,-8.97196 -5.87198,-11.74407 L 347.47887,208.68766 c -5.21953,-3.91463 -12.39642,-3.91463 -17.61605,0 L 139.02256,351.81791 c -3.69693,2.77211 -5.87201,7.12306 -5.87201,11.74407 v 330.30043 c 0,8.10745 6.57257,14.68001 14.68003,14.68001 z"
     id="path4"
     style="vector-effect:non-scaling-stroke;fill:#000000;fill-opacity:1;stroke-width:0.60000002"
     inkscape:connector-curvature="0"
     sodipodi:nodetypes="cccccccsscc" /><path
     style="vector-effect:non-scaling-stroke;fill:#ffffff;stroke:#000000;stroke-width:1.20000005"
     shaper:cutDepth="0.006349999999999981"
     shaper:pathType="interior"
     d="m 170.4378,503.02217 c 4.21562,0 7.63362,3.41805 7.63362,7.63361 0,4.21557 -3.418,7.63351 -7.63362,7.63351 v 145.62589 c 4.21562,0 7.63362,3.41804 7.63362,7.63361 0,4.21566 -3.418,7.63361 -7.63362,7.63361 -5.08908,0 -10.17815,0 -15.26723,0 -4.21559,0 -7.6336,-3.41795 -7.6336,-7.63361 0,-4.21557 3.41801,-7.63361 7.6336,-7.63361 V 518.28929 c -4.21559,0 -7.6336,-3.41794 -7.6336,-7.63351 0,-4.21556 3.41805,-7.61625 7.6336,-7.63361 z"
     id="path8"
     sodipodi:nodetypes="csccsccsccscc"
     inkscape:connector-curvature="0" /><g
     id="path8-1" /><path
     style="vector-effect:non-scaling-stroke;fill:#ffffff;stroke:#000000;stroke-width:1.20000005"
     shaper:cutDepth="0.006349999999999981"
     shaper:pathType="interior"
     d="m 418.8238,671.25518 c -0.0102,-4.21556 3.40815,-7.63769 7.62382,-7.64339 4.21556,-0.0133 7.63769,3.40825 7.64339,7.62382 0,5.09554 0,10.19108 0,15.28662 0.0102,4.21556 -3.40744,7.63768 -7.62382,7.64339 -4.21567,0.0133 -7.63768,-3.40825 -7.64339,-7.62382 -53.43517,-0.0466 -106.87061,-0.0194 -160.30586,-0.0194 0,4.21567 -3.41392,7.63524 -7.63035,7.63687 -4.21561,0 -7.63525,-3.41386 -7.63688,-7.63035 V 671.2485 c 0,-4.21566 3.41393,-7.63524 7.63036,-7.63687 4.21561,0 7.63524,3.41387 7.63687,7.63035 53.43523,0.0319 106.87059,0.0132 160.30586,0.0132 z"
     id="path10"
     sodipodi:nodetypes="ccccccccccccc"
     inkscape:connector-curvature="0" /><path
     style="vector-effect:non-scaling-stroke;fill:#ffffff;stroke:#000000;stroke-width:1.20000005"
     shaper:cutDepth="0.006349999999999981"
     shaper:pathType="interior"
     d="m 506.90396,400.84921 c -4.21567,0 -7.63361,-3.41794 -7.63361,-7.63361 0,-4.21557 3.41794,-7.63361 7.63361,-7.63361 h 15.26722 c 4.21556,0 7.63361,3.41804 7.63361,7.63361 0,4.21567 -3.41805,7.63361 -7.63361,7.63361 v 263.06597 c 4.21556,0 7.63361,3.41804 7.63361,7.63361 0,4.21566 -3.41805,7.63361 -7.63361,7.63361 h -15.26722 c -4.21567,0 -7.63361,-3.41795 -7.63361,-7.63361 0,-4.21557 3.41794,-7.63361 7.63361,-7.63361 z"
     id="path12"
     inkscape:connector-curvature="0"
     sodipodi:nodetypes="cssssccsssscc" /><path
     shaper:cutDepth="0.006349999999999981"
     shaper:pathType="exterior"
     d="m 601.25497,708.54241 c -8.10746,0 -14.68001,-6.57255 -14.68001,-14.68001 V 363.56189 c 0,-4.62094 2.17512,-8.97194 5.87198,-11.74403 L 783.28728,208.68765 c 5.21953,-3.91467 12.39642,-3.91467 17.61605,0 l 190.84026,143.13021 c 3.69693,2.77209 5.87202,7.12309 5.87202,11.74403 V 693.8624 c 0,8.10746 -6.57258,14.68001 -14.68003,14.68001 z"
     id="path14"
     style="vector-effect:non-scaling-stroke;fill:#000000;fill-opacity:1;stroke-width:0.60000002"
     inkscape:connector-curvature="0"
     sodipodi:nodetypes="cccccccsscc" /><path
     style="vector-effect:non-scaling-stroke;fill:#ffffff;stroke:#000000;stroke-width:1.20000005"
     shaper:cutDepth="0.006349999999999981"
     shaper:pathType="interior"
     d="m 960.32835,503.0221 c -4.21562,0 -7.63362,3.41799 -7.63362,7.63361 0,4.21562 3.418,7.63362 7.63362,7.63362 v 145.62583 c -4.21562,0 -7.63362,3.41799 -7.63362,7.63359 0,4.21562 3.418,7.63362 7.63362,7.63362 h 15.26723 c 4.2156,0 7.6336,-3.418 7.6336,-7.63362 0,-4.2156 -3.418,-7.63359 -7.6336,-7.63359 V 518.28933 c 4.2156,0 7.6336,-3.418 7.6336,-7.63362 0,-4.21562 -3.418,-7.63361 -7.6336,-7.63361 z"
     id="path18"
     inkscape:connector-curvature="0"
     sodipodi:nodetypes="csccsccsccscc" /><path
     style="vector-effect:non-scaling-stroke;fill:#ffffff;stroke:#000000;stroke-width:1.20000005"
     shaper:cutDepth="0.006349999999999981"
     shaper:pathType="interior"
     d="m 711.94235,671.25516 c 0.0102,-4.21562 -3.40815,-7.63768 -7.62382,-7.64339 -4.21556,-0.005 -7.63769,3.4082 -7.64339,7.62382 v 15.28683 c -0.0102,4.21562 3.40744,7.63769 7.62382,7.6434 4.21567,0.005 7.63768,-3.40822 7.64339,-7.62383 53.43524,-0.0485 106.87059,-0.0196 160.30586,-0.0196 0,4.21562 3.41392,7.63524 7.63035,7.63687 4.21561,10e-4 7.63525,-3.41392 7.63688,-7.63035 0,-5.09141 0,-10.18282 0,-15.27423 0,-4.21562 -3.41393,-7.63523 -7.63036,-7.63686 -4.21561,-0.001 -7.63524,3.4139 -7.63687,7.63033 -59.34326,0.0166 -109.82018,0.007 -160.30586,0.007 z"
     id="path20"
     sodipodi:nodetypes="cccccccccccccc"
     inkscape:connector-curvature="0" /><path
     style="vector-effect:non-scaling-stroke;fill:#ffffff;stroke:#000000;stroke-width:1.20000005"
     shaper:cutDepth="0.006349999999999981"
     shaper:pathType="interior"
     d="m 623.86219,400.84915 c 4.21567,0 7.63361,-3.41801 7.63361,-7.63362 0,-4.21561 -3.41794,-7.63361 -7.63361,-7.63361 h -15.26722 c -4.21556,0 -7.63361,3.418 -7.63361,7.63361 0,4.21561 3.41805,7.63362 7.63361,7.63362 v 263.06601 c -4.21556,0 -7.63361,3.41799 -7.63361,7.63359 0,4.21562 3.41805,7.63362 7.63361,7.63362 h 15.26722 c 4.21567,0 7.63361,-3.418 7.63361,-7.63362 0,-4.2156 -3.41794,-7.63359 -7.63361,-7.63359 z"
     id="path22"
     inkscape:connector-curvature="0"
     sodipodi:nodetypes="cssssccsssscc" /><circle
     style="fill:#fffff9;fill-opacity:1;stroke:#000000;stroke-width:1.20189;stroke-linecap:butt;stroke-linejoin:miter;stroke-miterlimit:4;stroke-dasharray:none;stroke-dashoffset:0;stroke-opacity:1"
     id="path4801"
     cx="-792.0954"
     cy="266.66724"
     r="18.296692"
     transform="scale(-1,1)" /><circle
     style="fill:#fffff9;fill-opacity:1;stroke:#000000;stroke-width:1.20189;stroke-linecap:butt;stroke-linejoin:miter;stroke-miterlimit:4;stroke-dasharray:none;stroke-dashoffset:0;stroke-opacity:1"
     id="path4801-6"
     cx="338.67084"
     cy="266.66724"
     r="18.29669" /><path
     id="path2403"
     style="fill:#ffffff;fill-opacity:1;stroke:#000000;stroke-width:0.188976;stroke-miterlimit:4;stroke-dasharray:none;stroke-opacity:1"
     d="m 521.41893,186.9485 a 7.5590561,7.5590561 0 0 0 -7.55859,7.55859 7.5590561,7.5590561 0 0 0 7.55859,7.5586 v 45.35547 a 7.5590557,7.5590557 0 0 0 -7.55859,7.55859 7.5590557,7.5590557 0 0 0 7.55859,7.55859 h 15.11914 a 7.5590553,7.5590553 0 0 0 7.5586,-7.55859 7.5590553,7.5590553 0 0 0 -7.5586,-7.55859 v -45.35547 a 7.5590565,7.5590565 0 0 0 7.5586,-7.5586 7.5590565,7.5590565 0 0 0 -7.5586,-7.55859 z" /><rect
     style="fill:#000000;fill-opacity:1;stroke:none;stroke-width:2.0732"
     id="rect2529-1"
     width="75.590546"
     height="75.590546"
     x="585.76593"
     y="187.04228" /><path
     id="path30-1"
     d="m 668.14325,1212.538 c 4.21566,-0.01 7.63768,3.4082 7.64339,7.6238 0,4.2156 -3.40815,7.6377 -7.62382,7.6434 H 652.8762 c -4.21567,0.01 -7.63769,-3.4082 -7.6434,-7.6238 0,-4.2157 3.40816,-7.6377 7.62383,-7.6434 0.047,-53.4353 0.0194,-106.8706 0.0194,-160.3059 -4.21557,0 -7.63361,-3.418 -7.63361,-7.6336 0,-4.2156 3.41804,-7.6336 7.63361,-7.6336 h 15.26722 c 4.21566,0 7.6336,3.418 7.6336,7.6336 0,4.2156 -3.41794,7.6336 -7.6336,7.6336 z"
     shaper:pathType="interior"
     shaper:cutDepth="0.006603999999999912"
     style="vector-effect:non-scaling-stroke;fill:#ffffff;stroke:#000000;stroke-width:1.20000005"
     inkscape:connector-curvature="0"
     sodipodi:nodetypes="cccccccsssscc" /></svg>